name Walk2.mot
datacolumns 19
datarows 17
range 3.14600000 3.16200000
endheader

                time	   L_ground_force_vx	   L_ground_force_vy	   L_ground_force_vz	   L_ground_force_px	   L_ground_force_py	   L_ground_force_pz	   R_ground_force_vx	   R_ground_force_vy	   R_ground_force_vz	   R_ground_force_px	   R_ground_force_py	   R_ground_force_pz	   L_ground_torque_x	   L_ground_torque_y	   L_ground_torque_z	   R_ground_torque_x	   R_ground_torque_y	   R_ground_torque_z	
          3.14600000	          0.00000000	          0.00000000	          0.00000000	          0.00000000	          0.00000000	          0.00000000	          0.00000000	          0.00000000	          0.00000000	          0.00000000	          0.00000000	          0.00000000	          0.00000000	          0.00000000	          0.00000000	          0.00000000	          0.00000000	          0.00000000	
          3.14700000	          0.00000000	          0.00000000	          0.00000000	          0.00000000	          0.00000000	          0.00000000	          0.00000000	          0.00000000	          0.00000000	          0.00000000	          0.00000000	          0.00000000	          0.00000000	          0.00000000	          0.00000000	          0.00000000	          0.00000000	          0.00000000	
          3.14800000	          0.00000000	          0.00000000	          0.00000000	          0.00000000	          0.00000000	          0.00000000	        -11.08370606	         12.17741834	         -1.53868548	         -0.35034562	          0.00000000	         -0.05431607	          0.00000000	          0.00000000	          0.00000000	          0.00000000	         -0.28565198	          0.00000000	
          3.14900000	          0.00000000	          0.00000000	          0.00000000	          0.00000000	          0.00000000	          0.00000000	        -17.96892231	         20.36577110	         -2.18555937	         -0.34849364	          0.00000000	         -0.04851467	          0.00000000	          0.00000000	          0.00000000	          0.00000000	         -0.33276854	          0.00000000	
          3.15000000	          0.00000000	          0.00000000	          0.00000000	          0.00000000	          0.00000000	          0.00000000	        -25.92254267	         30.85327182	         -2.64377120	         -0.34679561	          0.00000000	         -0.04362065	          0.00000000	          0.00000000	          0.00000000	          0.00000000	         -0.31178275	          0.00000000	
          3.15100000	          0.00000000	          0.00000000	          0.00000000	          0.00000000	          0.00000000	          0.00000000	        -35.06668102	         44.97196270	         -2.81089920	         -0.34533301	          0.00000000	         -0.04034849	          0.00000000	          0.00000000	          0.00000000	          0.00000000	         -0.25378647	          0.00000000	
          3.15200000	          0.00000000	          0.00000000	          0.00000000	          0.00000000	          0.00000000	          0.00000000	        -45.22461708	         64.05836716	         -2.59218492	         -0.34411537	          0.00000000	         -0.03852157	          0.00000000	          0.00000000	          0.00000000	          0.00000000	         -0.18764986	          0.00000000	
          3.15300000	          0.00000000	          0.00000000	          0.00000000	          0.00000000	          0.00000000	          0.00000000	        -55.83924096	         89.05739551	         -1.92740526	         -0.34314096	          0.00000000	         -0.03743406	          0.00000000	          0.00000000	          0.00000000	          0.00000000	         -0.11786770	          0.00000000	
          3.15400000	          0.00000000	          0.00000000	          0.00000000	          0.00000000	          0.00000000	          0.00000000	        -66.04273669	        120.21277447	         -0.82264639	         -0.34244409	          0.00000000	         -0.03652098	          0.00000000	          0.00000000	          0.00000000	          0.00000000	         -0.03445453	          0.00000000	
          3.15500000	          0.00000000	          0.00000000	          0.00000000	          0.00000000	          0.00000000	          0.00000000	        -74.81910078	        156.85802927	          0.63614855	         -0.34201495	          0.00000000	         -0.03559589	          0.00000000	          0.00000000	          0.00000000	          0.00000000	          0.06566378	          0.00000000	
          3.15600000	          0.00000000	          0.00000000	          0.00000000	          0.00000000	          0.00000000	          0.00000000	        -81.24271579	        197.41854414	          2.28967768	         -0.34176462	          0.00000000	         -0.03469680	          0.00000000	          0.00000000	          0.00000000	          0.00000000	          0.17188906	          0.00000000	
          3.15700000	          0.00000000	          0.00000000	          0.00000000	          0.00000000	          0.00000000	          0.00000000	        -84.71901109	        239.68367313	          3.90424817	         -0.34157348	          0.00000000	         -0.03387629	          0.00000000	          0.00000000	          0.00000000	          0.00000000	          0.26871166	          0.00000000	
          3.15800000	          0.00000000	          0.00000000	          0.00000000	          0.00000000	          0.00000000	          0.00000000	        -85.10764995	        281.22613591	          5.16359154	         -0.34135388	          0.00000000	         -0.03312743	          0.00000000	          0.00000000	          0.00000000	          0.00000000	          0.34639130	          0.00000000	
          3.15900000	          0.00000000	          0.00000000	          0.00000000	          0.00000000	          0.00000000	          0.00000000	        -82.70346286	        319.79173876	          5.70533082	         -0.34108610	          0.00000000	         -0.03240879	          0.00000000	          0.00000000	          0.00000000	          0.00000000	          0.40377577	          0.00000000	
          3.16000000	          0.00000000	          0.00000000	          0.00000000	          0.00000000	          0.00000000	          0.00000000	        -78.12195963	        353.59997428	          5.21653824	         -0.34080067	          0.00000000	         -0.03168323	          0.00000000	          0.00000000	          0.00000000	          0.00000000	          0.44212026	          0.00000000	
          3.16100000	          0.00000000	          0.00000000	          0.00000000	          0.00000000	          0.00000000	          0.00000000	        -72.13773508	        381.56750485	          3.52456153	         -0.34052157	          0.00000000	         -0.03095267	          0.00000000	          0.00000000	          0.00000000	          0.00000000	          0.45923723	          0.00000000	
          3.16200000	          0.00000000	          0.00000000	          0.00000000	          0.00000000	          0.00000000	          0.00000000	        -65.52517732	        403.41071009	          0.63297058	         -0.34023902	          0.00000000	         -0.03025517	          0.00000000	          0.00000000	          0.00000000	          0.00000000	          0.45262038	          0.00000000	
